<?xml version="1.0" encoding="UTF-8" standalone="no"?>
<!DOCTYPE svg PUBLIC "-//W3C//DTD SVG 1.1//EN" "http://www.w3.org/Graphics/SVG/1.1/DTD/svg11.dtd">
<svg width="100%" height="100%" viewBox="0 0 256 256" version="1.1" xmlns="http://www.w3.org/2000/svg" xmlns:xlink="http://www.w3.org/1999/xlink" xml:space="preserve" xmlns:serif="http://www.serif.com/" style="fill-rule:evenodd;clip-rule:evenodd;stroke-linecap:round;stroke-linejoin:round;stroke-miterlimit:10;">
    <g id="icon">
        <g transform="matrix(-1,0,0,1,287.999,206.913)">
            <path d="M64.003,24.544l159.993,-0" style="fill:none;fill-rule:nonzero;stroke:black;stroke-width:8px;"/>
        </g>
        <g transform="matrix(0.872006,0.489496,0.489496,-0.872006,-10.2661,228.212)">
            <path d="M29.655,33.525c4.824,-8.593 21.389,-8.593 36.696,-0" style="fill:none;fill-rule:nonzero;stroke:black;stroke-width:8px;"/>
        </g>
        <g transform="matrix(0.872006,-0.489496,-0.489496,-0.872006,31.3468,272.907)">
            <path d="M29.655,51.487c4.824,8.593 21.389,8.593 36.696,0" style="fill:none;fill-rule:nonzero;stroke:black;stroke-width:8px;"/>
        </g>
        <g transform="matrix(-1,0,0,1,287.999,135.064)">
            <path d="M64.003,60.468l159.993,0" style="fill:none;fill-rule:nonzero;stroke:black;stroke-width:8px;"/>
        </g>
        <g transform="matrix(0.852211,-0.523199,-0.523199,-0.852211,127.518,247.099)">
            <path d="M29.229,230.169c5.639,9.184 22.588,9.184 37.548,-0.001" style="fill:none;fill-rule:nonzero;stroke:black;stroke-width:8px;"/>
        </g>
        <g transform="matrix(-1,0,0,1,287.999,-223.982)">
            <path d="M64.003,239.991l159.993,0" style="fill:none;fill-rule:nonzero;stroke:black;stroke-width:8px;"/>
        </g>
        <g transform="matrix(0,1,1,0,-99.7459,92.2464)">
            <path d="M-54.78,131.75l173.568,-0" style="fill:none;fill-rule:nonzero;stroke:black;stroke-width:8px;"/>
        </g>
        <g transform="matrix(0,-1,-1,0,214.496,169.51)">
            <path d="M-25.504,150.493l179.014,0" style="fill:none;fill-rule:nonzero;stroke:black;stroke-width:8px;"/>
        </g>
        <g transform="matrix(0,1,1,0,73.2486,-118.743)">
            <path d="M134.752,150.747l178.488,0" style="fill:none;fill-rule:nonzero;stroke:black;stroke-width:8px;"/>
        </g>
        <g transform="matrix(0,1,1,0,176.182,-5.1934)">
            <path d="M200.725,47.814c11.794,-10.063 23.759,-10.617 35.925,0" style="fill:none;fill-rule:nonzero;stroke:black;stroke-width:8px;"/>
        </g>
        <g>
            <g>
                <g transform="matrix(0.340236,0,0,0.340236,101.809,19.3172)">
                    <path d="M92.17,84.4l-0,-15.73l-0.01,0c-0.14,-4.18 -2.77,-6.88 -6.94,-7.55l0,15.73l0.01,0c0.14,4.18 2.77,6.88 6.94,7.55Z" style="fill:rgb(232,70,20);fill-rule:nonzero;"/>
                </g>
                <g transform="matrix(0.340236,0,0,0.340236,101.809,40.1771)">
                    <path d="M85.16,36.54l-0.01,0l0,18.67c4.17,-0.67 6.8,-3.37 6.94,-7.54l0.01,0l0,-18.67c-4.17,0.67 -6.8,3.37 -6.94,7.54Z" style="fill:rgb(232,70,20);fill-rule:nonzero;"/>
                </g>
                <g transform="matrix(0.340236,0,0,0.340236,101.809,40.1737)">
                    <path d="M119.94,47.66l0.01,-0c0.14,4.18 2.77,6.88 6.94,7.55l0,-18.65l-0.01,-0c-0.14,-4.18 -2.77,-6.88 -6.94,-7.55l0,18.65Z" style="fill:rgb(232,70,20);fill-rule:nonzero;"/>
                </g>
                <g transform="matrix(0.340236,0,0,0.340236,101.809,21.3348)">
                    <path d="M119.96,62.73l-0.01,0l0,15.75c-0.72,0.08 -1.44,0.16 -2.15,0.16l-23.54,0c-0.72,0 -1.51,-0.08 -2.15,-0.16c1.47,0.18 2.62,1.43 2.62,2.95c0,1.52 -1.14,2.77 -2.62,2.95c0.64,-0.07 1.44,-0.15 2.15,-0.15l23.54,0c0.72,0 1.43,0.08 2.15,0.16c-1.53,-0.12 -2.73,-1.39 -2.73,-2.95c0,-1.56 1.21,-2.83 2.73,-2.94c4.17,-0.67 6.8,-3.37 6.94,-7.54l0.01,0l0,-15.76c-4.17,0.67 -6.8,3.37 -6.94,7.54l0,-0.01Z" style="fill:rgb(232,70,20);fill-rule:nonzero;"/>
                </g>
                <g transform="matrix(0.340236,0,0,0.340236,101.809,13.0126)">
                    <path d="M215.94,85.05l-0.95,-3.02c0,0 -0.01,-0.03 -0.02,-0.04c-0.19,-0.62 -0.49,-1.19 -0.9,-1.66l-0.01,0c-0.11,-0.14 -0.24,-0.26 -0.37,-0.38c-0.03,-0.03 -0.06,-0.06 -0.09,-0.08c-0.67,-0.54 -1.54,-0.88 -2.62,-0.88c-1.38,0 -2.32,0.48 -2.99,1.27c-0.11,0.12 -0.2,0.25 -0.29,0.39c-0.01,0.02 -0.03,0.04 -0.04,0.06c-0.1,0.16 -0.19,0.32 -0.28,0.5c-0.01,0.03 -0.03,0.05 -0.04,0.08c-0.06,0.12 -0.11,0.24 -0.16,0.36c-0.03,0.08 -0.07,0.15 -0.1,0.24c-0.03,0.09 -0.04,0.1 -0.06,0.15l-0.95,3.02c1.47,-0.33 3.11,-0.52 4.93,-0.52c1.82,0 3.46,0.2 4.93,0.52l0.01,-0.01Z" style="fill:rgb(232,70,20);fill-rule:nonzero;"/>
                </g>
                <g transform="matrix(0.340236,0,0,0.340236,101.809,23.087)">
                    <path d="M226.17,71.12c-0,0 -1.47,-5.05 -2.24,-8.4c-0.95,-4.12 -4.72,-6.54 -7.98,-7.29l5.64,23.58c2.88,-1.28 5.45,-4.76 4.59,-7.9l-0.01,0.01Z" style="fill:rgb(232,70,20);fill-rule:nonzero;"/>
                </g>
                <g transform="matrix(0.340236,0,0,0.340236,101.809,32.2292)">
                    <path d="M231.63,64.19l-0.05,-0.05l-0.09,-0.37c-1.24,-4.54 -4.4,-6.73 -8.59,-6.24l-0.15,-0c-1.57,-0 -2.87,-1.23 -2.87,-2.8c0,-1.15 0.69,-2.14 1.67,-2.59l0.03,-0l-0.02,-0.09c-0.4,0.1 -1.34,0.07 -1.92,0.07c0,0 -13.55,0.14 -17.81,0.02c-0.47,-0.01 -1,0.01 -1.35,-0.07l5.62,-23.51c-3.26,0.74 -7.03,3.17 -7.98,7.29c-0.77,3.35 -2.24,8.4 -2.24,8.4c-0.86,3.12 1.67,6.57 4.52,7.87c0.97,0.45 1.64,1.43 1.64,2.57c0,1.57 -1.27,2.84 -2.84,2.84l-0.17,-0c-3.98,-0.39 -7.05,1.69 -8.1,5.87l-0.47,1.69l-3.69,13.41c4.2,0.51 7.37,-1.69 8.62,-6.24l0.09,-0.37l0.04,-0.04l3.5,-14.22c0.52,-0.08 1.16,-0.14 1.74,-0.14l20.3,0c0.58,0 1.28,0.06 1.86,0.14l3.66,13.32l0.47,1.69c1.06,4.18 4.12,6.25 8.11,5.86l-3.53,-14.31Z" style="fill:rgb(232,70,20);fill-rule:nonzero;"/>
                </g>
                <g transform="matrix(0.340236,0,0,0.340236,101.809,30.249)">
                    <path d="M66.76,36.74c-0.25,-0.57 -3.91,-8.38 -13.41,-8.38c-9.59,0 -13.3,8.2 -13.39,8.41c-0.36,0.18 -11.62,5.81 -11.62,20.03c-0,14.55 11.44,19.77 11.63,19.85c0.26,0.57 4.02,8.38 13.38,8.38c9.33,0 13.02,-7.53 13.39,-8.34c5.94,-2.76 8.76,-7.49 8.76,-13.52l-0,-5.12l-17.92,0c-3.16,0 -5.71,2.27 -5.71,5.34l17.05,0l-0,2.69c-0,3.87 -0.68,7.51 -2.18,10.55c-14.82,5.05 -26.4,0.15 -26.77,0c-7.55,-22.13 -0.18,-39.41 -0,-39.85c0.36,-0.16 11.96,-5.07 26.8,0c1.35,2.87 0.86,3.6 1.17,6.16c0.54,4.52 4.3,6.34 7.83,6.34l1.07,-0.03c0,0 0.18,-3.17 -1.18,-5.69c-1.79,-3.32 -5.59,-5.52 -8.89,-6.82l-0.01,0Z" style="fill:rgb(232,70,20);fill-rule:nonzero;"/>
                </g>
                <g transform="matrix(0.340236,0,0,0.340236,101.809,30.249)">
                    <path d="M173.45,36.74c-0.25,-0.57 -3.91,-8.38 -13.41,-8.38c-9.59,0 -13.3,8.2 -13.39,8.41c-0.36,0.18 -11.62,5.81 -11.62,20.03c-0,14.55 11.44,19.77 11.63,19.85c0.26,0.57 4.02,8.38 13.38,8.38c9.33,0 13.02,-7.53 13.39,-8.34c5.94,-2.76 8.76,-7.49 8.76,-13.52l0,-5.12l-17.92,0c-3.16,0 -5.71,2.27 -5.71,5.34l17.05,0l0,2.69c0,3.87 -0.68,7.51 -2.18,10.55c-14.82,5.05 -26.4,0.15 -26.77,0c-7.55,-22.13 -0.18,-39.41 0,-39.85c0.36,-0.16 11.96,-5.07 26.8,0c1.35,2.87 0.86,3.6 1.17,6.16c0.54,4.52 4.3,6.34 7.83,6.34l1.07,-0.03c0,0 0.18,-3.17 -1.18,-5.69c-1.79,-3.32 -5.59,-5.52 -8.89,-6.82l-0.01,0Z" style="fill:rgb(232,70,20);fill-rule:nonzero;"/>
                </g>
            </g>
        </g>
        <g>
            <g transform="matrix(0.794441,0,0,1,22.9637,0)">
                <g transform="matrix(84.5657,0,0,84.5657,111.713,120.354)">
                    <path d="M0.379,-0.258l0,-0.002l-0.323,-0.158l0,-0.074l0.401,0.2l-0,0.066l-0.401,0.199l0,-0.073l0.323,-0.158Z" style="fill-rule:nonzero;"/>
                </g>
            </g>
            <g transform="matrix(0.976967,0,0,1,3.29077,0)">
                <g transform="matrix(58.9715,0,0,58.9715,142.87,110.499)">
                    <rect x="0" y="0.069" width="0.488" height="0.065" style="fill-rule:nonzero;"/>
                </g>
            </g>
            <g transform="matrix(1.02744,0,0,1,-2.72431,0)">
                <g transform="matrix(17.5207,0,0,17.5207,99.2829,149.605)">
                    <path d="M0.514,-0.326c0,0.03 -0.002,0.06 -0.007,0.088c-0.005,0.028 -0.012,0.054 -0.023,0.078c-0.01,0.024 -0.024,0.046 -0.04,0.066c-0.017,0.019 -0.037,0.036 -0.061,0.05c-0.024,0.014 -0.052,0.025 -0.084,0.033c-0.032,0.007 -0.068,0.011 -0.109,0.011l-0.137,0l0,-0.638l0.165,-0c0.099,-0 0.174,0.025 0.223,0.077c0.049,0.051 0.073,0.129 0.073,0.235Zm-0.091,0.006c-0,-0.045 -0.004,-0.083 -0.013,-0.115c-0.008,-0.031 -0.021,-0.056 -0.038,-0.075c-0.018,-0.019 -0.039,-0.033 -0.065,-0.042c-0.026,-0.009 -0.057,-0.013 -0.092,-0.013l-0.075,0l0,0.49l0.065,-0c0.145,-0 0.218,-0.082 0.218,-0.245Z" style="fill-rule:nonzero;"/>
                </g>
                <g transform="matrix(17.5207,0,0,17.5207,108.916,149.605)">
                    <path d="M0.492,-0.271c0,0.012 0,0.022 -0,0.03c-0.001,0.008 -0.001,0.016 -0.002,0.023l-0.344,0c-0,0.05 0.014,0.089 0.042,0.116c0.028,0.027 0.068,0.04 0.121,0.04c0.014,-0 0.029,-0.001 0.043,-0.002c0.014,-0.001 0.028,-0.002 0.042,-0.004c0.013,-0.002 0.026,-0.005 0.038,-0.007c0.012,-0.002 0.023,-0.005 0.034,-0.008l-0,0.07c-0.023,0.006 -0.049,0.012 -0.079,0.016c-0.029,0.004 -0.059,0.006 -0.09,0.006c-0.042,-0 -0.078,-0.006 -0.109,-0.017c-0.03,-0.012 -0.055,-0.028 -0.074,-0.05c-0.019,-0.022 -0.034,-0.048 -0.043,-0.079c-0.009,-0.032 -0.014,-0.067 -0.014,-0.107c0,-0.035 0.005,-0.067 0.015,-0.098c0.01,-0.031 0.024,-0.058 0.043,-0.081c0.02,-0.023 0.043,-0.042 0.071,-0.056c0.027,-0.013 0.059,-0.02 0.094,-0.02c0.034,-0 0.064,0.005 0.091,0.016c0.026,0.011 0.048,0.026 0.066,0.046c0.018,0.019 0.032,0.043 0.041,0.072c0.01,0.028 0.014,0.059 0.014,0.094Zm-0.088,-0.012c0.001,-0.022 -0.001,-0.042 -0.007,-0.06c-0.005,-0.018 -0.013,-0.034 -0.024,-0.047c-0.011,-0.013 -0.024,-0.023 -0.04,-0.03c-0.017,-0.007 -0.036,-0.011 -0.057,-0.011c-0.019,-0 -0.036,0.003 -0.051,0.011c-0.015,0.007 -0.028,0.017 -0.039,0.03c-0.012,0.013 -0.02,0.029 -0.027,0.047c-0.007,0.018 -0.011,0.038 -0.013,0.06l0.258,-0Z" style="fill-rule:nonzero;"/>
                </g>
                <g transform="matrix(17.5207,0,0,17.5207,118.549,149.605)">
                    <path d="M0.032,-0.49l0.097,-0l0.12,0.324l0.026,0.079l0.027,-0.081l0.119,-0.322l0.093,-0l-0.192,0.49l-0.098,-0l-0.192,-0.49Z" style="fill-rule:nonzero;"/>
                </g>
                <g transform="matrix(17.5207,0,0,17.5207,128.182,149.605)">
                    <path d="M0.492,-0.271c0,0.012 0,0.022 -0,0.03c-0.001,0.008 -0.001,0.016 -0.002,0.023l-0.344,0c-0,0.05 0.014,0.089 0.042,0.116c0.028,0.027 0.068,0.04 0.121,0.04c0.014,-0 0.029,-0.001 0.043,-0.002c0.014,-0.001 0.028,-0.002 0.042,-0.004c0.013,-0.002 0.026,-0.005 0.038,-0.007c0.012,-0.002 0.023,-0.005 0.034,-0.008l-0,0.07c-0.023,0.006 -0.049,0.012 -0.079,0.016c-0.029,0.004 -0.059,0.006 -0.09,0.006c-0.042,-0 -0.078,-0.006 -0.109,-0.017c-0.03,-0.012 -0.055,-0.028 -0.074,-0.05c-0.019,-0.022 -0.034,-0.048 -0.043,-0.079c-0.009,-0.032 -0.014,-0.067 -0.014,-0.107c0,-0.035 0.005,-0.067 0.015,-0.098c0.01,-0.031 0.024,-0.058 0.043,-0.081c0.02,-0.023 0.043,-0.042 0.071,-0.056c0.027,-0.013 0.059,-0.02 0.094,-0.02c0.034,-0 0.064,0.005 0.091,0.016c0.026,0.011 0.048,0.026 0.066,0.046c0.018,0.019 0.032,0.043 0.041,0.072c0.01,0.028 0.014,0.059 0.014,0.094Zm-0.088,-0.012c0.001,-0.022 -0.001,-0.042 -0.007,-0.06c-0.005,-0.018 -0.013,-0.034 -0.024,-0.047c-0.011,-0.013 -0.024,-0.023 -0.04,-0.03c-0.017,-0.007 -0.036,-0.011 -0.057,-0.011c-0.019,-0 -0.036,0.003 -0.051,0.011c-0.015,0.007 -0.028,0.017 -0.039,0.03c-0.012,0.013 -0.02,0.029 -0.027,0.047c-0.007,0.018 -0.011,0.038 -0.013,0.06l0.258,-0Z" style="fill-rule:nonzero;"/>
                </g>
                <g transform="matrix(17.5207,0,0,17.5207,137.814,149.605)">
                    <path d="M0.245,-0.62l-0.145,-0l0,-0.07l0.231,0l0,0.619l0.146,0l0,0.071l-0.393,-0l-0,-0.071l0.161,0l0,-0.549Z" style="fill-rule:nonzero;"/>
                </g>
                <g transform="matrix(17.5207,0,0,17.5207,147.447,149.605)">
                    <path d="M0.505,-0.249c-0,0.038 -0.005,0.073 -0.016,0.105c-0.011,0.031 -0.026,0.059 -0.047,0.081c-0.02,0.023 -0.044,0.04 -0.073,0.053c-0.029,0.013 -0.062,0.019 -0.099,0.019c-0.035,-0 -0.067,-0.006 -0.094,-0.017c-0.028,-0.01 -0.052,-0.027 -0.071,-0.048c-0.02,-0.021 -0.034,-0.047 -0.045,-0.078c-0.01,-0.032 -0.015,-0.067 -0.015,-0.108c-0,-0.038 0.005,-0.073 0.016,-0.104c0.011,-0.032 0.026,-0.059 0.046,-0.081c0.021,-0.023 0.045,-0.041 0.074,-0.053c0.029,-0.013 0.062,-0.019 0.099,-0.019c0.035,-0 0.066,0.005 0.094,0.016c0.028,0.011 0.052,0.027 0.071,0.048c0.019,0.021 0.034,0.047 0.045,0.079c0.01,0.031 0.015,0.067 0.015,0.107Zm-0.087,0.004c-0,-0.03 -0.003,-0.057 -0.01,-0.079c-0.007,-0.023 -0.016,-0.042 -0.029,-0.057c-0.012,-0.015 -0.027,-0.027 -0.045,-0.034c-0.018,-0.008 -0.037,-0.012 -0.059,-0.012c-0.025,0 -0.047,0.005 -0.065,0.015c-0.018,0.01 -0.033,0.023 -0.045,0.04c-0.011,0.017 -0.02,0.036 -0.025,0.058c-0.005,0.022 -0.008,0.045 -0.008,0.069c-0,0.03 0.003,0.057 0.01,0.079c0.007,0.023 0.016,0.042 0.028,0.057c0.013,0.015 0.028,0.027 0.045,0.035c0.018,0.007 0.038,0.011 0.06,0.011c0.025,0 0.047,-0.005 0.065,-0.015c0.018,-0.01 0.033,-0.023 0.045,-0.04c0.011,-0.016 0.02,-0.036 0.025,-0.058c0.005,-0.022 0.008,-0.045 0.008,-0.069Z" style="fill-rule:nonzero;"/>
                </g>
                <g transform="matrix(17.5207,0,0,17.5207,157.08,149.605)">
                    <path d="M0.497,-0.254c0,0.044 -0.006,0.082 -0.018,0.114c-0.012,0.033 -0.029,0.06 -0.051,0.081c-0.021,0.022 -0.047,0.038 -0.076,0.049c-0.029,0.01 -0.061,0.016 -0.095,0.016c-0.016,-0 -0.031,-0.001 -0.047,-0.003c-0.015,-0.001 -0.031,-0.004 -0.047,-0.008l0,0.205l-0.085,0l0,-0.69l0.076,-0l0.005,0.082c0.025,-0.034 0.051,-0.057 0.078,-0.071c0.028,-0.013 0.058,-0.02 0.09,-0.02c0.028,-0 0.053,0.006 0.074,0.018c0.021,0.011 0.039,0.028 0.053,0.049c0.014,0.021 0.025,0.047 0.032,0.077c0.007,0.03 0.011,0.064 0.011,0.101Zm-0.087,0.004c0,-0.026 -0.002,-0.049 -0.005,-0.071c-0.004,-0.021 -0.01,-0.04 -0.018,-0.055c-0.008,-0.015 -0.019,-0.027 -0.032,-0.036c-0.012,-0.008 -0.027,-0.013 -0.045,-0.013c-0.011,0 -0.022,0.002 -0.033,0.005c-0.011,0.004 -0.022,0.009 -0.034,0.017c-0.012,0.008 -0.024,0.019 -0.038,0.032c-0.013,0.013 -0.027,0.03 -0.042,0.049l0,0.238c0.016,0.007 0.032,0.012 0.049,0.015c0.018,0.004 0.035,0.006 0.051,0.006c0.046,0 0.082,-0.016 0.108,-0.047c0.026,-0.031 0.039,-0.078 0.039,-0.14Z" style="fill-rule:nonzero;"/>
                </g>
                <g transform="matrix(17.5207,0,0,17.5207,166.713,149.605)">
                    <path d="M0.492,-0.271c0,0.012 0,0.022 -0,0.03c-0.001,0.008 -0.001,0.016 -0.002,0.023l-0.344,0c-0,0.05 0.014,0.089 0.042,0.116c0.028,0.027 0.068,0.04 0.121,0.04c0.014,-0 0.029,-0.001 0.043,-0.002c0.014,-0.001 0.028,-0.002 0.042,-0.004c0.013,-0.002 0.026,-0.005 0.038,-0.007c0.012,-0.002 0.023,-0.005 0.034,-0.008l-0,0.07c-0.023,0.006 -0.049,0.012 -0.079,0.016c-0.029,0.004 -0.059,0.006 -0.09,0.006c-0.042,-0 -0.078,-0.006 -0.109,-0.017c-0.03,-0.012 -0.055,-0.028 -0.074,-0.05c-0.019,-0.022 -0.034,-0.048 -0.043,-0.079c-0.009,-0.032 -0.014,-0.067 -0.014,-0.107c0,-0.035 0.005,-0.067 0.015,-0.098c0.01,-0.031 0.024,-0.058 0.043,-0.081c0.02,-0.023 0.043,-0.042 0.071,-0.056c0.027,-0.013 0.059,-0.02 0.094,-0.02c0.034,-0 0.064,0.005 0.091,0.016c0.026,0.011 0.048,0.026 0.066,0.046c0.018,0.019 0.032,0.043 0.041,0.072c0.01,0.028 0.014,0.059 0.014,0.094Zm-0.088,-0.012c0.001,-0.022 -0.001,-0.042 -0.007,-0.06c-0.005,-0.018 -0.013,-0.034 -0.024,-0.047c-0.011,-0.013 -0.024,-0.023 -0.04,-0.03c-0.017,-0.007 -0.036,-0.011 -0.057,-0.011c-0.019,-0 -0.036,0.003 -0.051,0.011c-0.015,0.007 -0.028,0.017 -0.039,0.03c-0.012,0.013 -0.02,0.029 -0.027,0.047c-0.007,0.018 -0.011,0.038 -0.013,0.06l0.258,-0Z" style="fill-rule:nonzero;"/>
                </g>
                <g transform="matrix(17.5207,0,0,17.5207,176.346,149.605)">
                    <path d="M0.098,-0.49l0.078,-0l0.002,0.09c0.029,-0.035 0.058,-0.06 0.086,-0.076c0.028,-0.015 0.056,-0.023 0.085,-0.023c0.051,-0 0.089,0.016 0.116,0.049c0.026,0.033 0.038,0.082 0.036,0.147l-0.086,-0c0.001,-0.043 -0.005,-0.074 -0.019,-0.094c-0.013,-0.019 -0.033,-0.029 -0.059,-0.029c-0.011,0 -0.023,0.002 -0.035,0.006c-0.011,0.004 -0.023,0.011 -0.035,0.02c-0.012,0.009 -0.025,0.02 -0.039,0.034c-0.014,0.014 -0.028,0.031 -0.044,0.051l0,0.315l-0.086,-0l0,-0.49Z" style="fill-rule:nonzero;"/>
                </g>
            </g>
            <g transform="matrix(1.02744,0,0,1,-2.8601,0)">
                <g transform="matrix(17.5207,0,0,17.5207,104.232,170.116)">
                    <path d="M0.486,-0.024c-0.051,0.021 -0.105,0.032 -0.161,0.032c-0.09,-0 -0.159,-0.027 -0.208,-0.081c-0.048,-0.054 -0.072,-0.134 -0.072,-0.239c-0,-0.051 0.007,-0.097 0.02,-0.139c0.013,-0.041 0.032,-0.076 0.057,-0.105c0.025,-0.029 0.055,-0.051 0.09,-0.067c0.035,-0.015 0.074,-0.023 0.118,-0.023c0.03,0 0.057,0.003 0.083,0.008c0.025,0.005 0.049,0.012 0.073,0.023l-0,0.085c-0.023,-0.012 -0.047,-0.022 -0.072,-0.029c-0.025,-0.007 -0.052,-0.01 -0.081,-0.01c-0.03,0 -0.057,0.006 -0.081,0.017c-0.025,0.011 -0.045,0.028 -0.062,0.049c-0.017,0.021 -0.03,0.047 -0.039,0.078c-0.009,0.031 -0.014,0.066 -0.014,0.105c0,0.083 0.017,0.145 0.051,0.187c0.033,0.042 0.082,0.063 0.147,0.063c0.027,0 0.054,-0.003 0.079,-0.009c0.025,-0.007 0.049,-0.016 0.072,-0.027l-0,0.082Z" style="fill-rule:nonzero;"/>
                </g>
                <g transform="matrix(17.5207,0,0,17.5207,113.864,170.116)">
                    <path d="M0.505,-0.249c-0,0.038 -0.005,0.073 -0.016,0.105c-0.011,0.031 -0.026,0.059 -0.047,0.081c-0.02,0.023 -0.044,0.04 -0.073,0.053c-0.029,0.013 -0.062,0.019 -0.099,0.019c-0.035,-0 -0.067,-0.006 -0.094,-0.017c-0.028,-0.01 -0.052,-0.027 -0.071,-0.048c-0.02,-0.021 -0.034,-0.047 -0.045,-0.078c-0.01,-0.032 -0.015,-0.067 -0.015,-0.108c-0,-0.038 0.005,-0.073 0.016,-0.104c0.011,-0.032 0.026,-0.059 0.046,-0.081c0.021,-0.023 0.045,-0.041 0.074,-0.053c0.029,-0.013 0.062,-0.019 0.099,-0.019c0.035,-0 0.066,0.005 0.094,0.016c0.028,0.011 0.052,0.027 0.071,0.048c0.019,0.021 0.034,0.047 0.045,0.079c0.01,0.031 0.015,0.067 0.015,0.107Zm-0.087,0.004c-0,-0.03 -0.003,-0.057 -0.01,-0.079c-0.007,-0.023 -0.016,-0.042 -0.029,-0.057c-0.012,-0.015 -0.027,-0.027 -0.045,-0.034c-0.018,-0.008 -0.037,-0.012 -0.059,-0.012c-0.025,0 -0.047,0.005 -0.065,0.015c-0.018,0.01 -0.033,0.023 -0.045,0.04c-0.011,0.017 -0.02,0.036 -0.025,0.058c-0.005,0.022 -0.008,0.045 -0.008,0.069c-0,0.03 0.003,0.057 0.01,0.079c0.007,0.023 0.016,0.042 0.028,0.057c0.013,0.015 0.028,0.027 0.045,0.035c0.018,0.007 0.038,0.011 0.06,0.011c0.025,0 0.047,-0.005 0.065,-0.015c0.018,-0.01 0.033,-0.023 0.045,-0.04c0.011,-0.016 0.02,-0.036 0.025,-0.058c0.005,-0.022 0.008,-0.045 0.008,-0.069Z" style="fill-rule:nonzero;"/>
                </g>
                <g transform="matrix(17.5207,0,0,17.5207,123.497,170.116)">
                    <path d="M0.505,-0.249c-0,0.038 -0.005,0.073 -0.016,0.105c-0.011,0.031 -0.026,0.059 -0.047,0.081c-0.02,0.023 -0.044,0.04 -0.073,0.053c-0.029,0.013 -0.062,0.019 -0.099,0.019c-0.035,-0 -0.067,-0.006 -0.094,-0.017c-0.028,-0.01 -0.052,-0.027 -0.071,-0.048c-0.02,-0.021 -0.034,-0.047 -0.045,-0.078c-0.01,-0.032 -0.015,-0.067 -0.015,-0.108c-0,-0.038 0.005,-0.073 0.016,-0.104c0.011,-0.032 0.026,-0.059 0.046,-0.081c0.021,-0.023 0.045,-0.041 0.074,-0.053c0.029,-0.013 0.062,-0.019 0.099,-0.019c0.035,-0 0.066,0.005 0.094,0.016c0.028,0.011 0.052,0.027 0.071,0.048c0.019,0.021 0.034,0.047 0.045,0.079c0.01,0.031 0.015,0.067 0.015,0.107Zm-0.087,0.004c-0,-0.03 -0.003,-0.057 -0.01,-0.079c-0.007,-0.023 -0.016,-0.042 -0.029,-0.057c-0.012,-0.015 -0.027,-0.027 -0.045,-0.034c-0.018,-0.008 -0.037,-0.012 -0.059,-0.012c-0.025,0 -0.047,0.005 -0.065,0.015c-0.018,0.01 -0.033,0.023 -0.045,0.04c-0.011,0.017 -0.02,0.036 -0.025,0.058c-0.005,0.022 -0.008,0.045 -0.008,0.069c-0,0.03 0.003,0.057 0.01,0.079c0.007,0.023 0.016,0.042 0.028,0.057c0.013,0.015 0.028,0.027 0.045,0.035c0.018,0.007 0.038,0.011 0.06,0.011c0.025,0 0.047,-0.005 0.065,-0.015c0.018,-0.01 0.033,-0.023 0.045,-0.04c0.011,-0.016 0.02,-0.036 0.025,-0.058c0.005,-0.022 0.008,-0.045 0.008,-0.069Z" style="fill-rule:nonzero;"/>
                </g>
                <g transform="matrix(17.5207,0,0,17.5207,133.13,170.116)">
                    <path d="M0.519,-0l-0.117,-0l-0.228,-0.263l-0,0.263l-0.085,-0l-0,-0.69l0.085,0l-0,0.424l0.22,-0.224l0.112,-0l-0.23,0.226l0.243,0.264Z" style="fill-rule:nonzero;"/>
                </g>
                <g transform="matrix(17.5207,0,0,17.5207,142.763,170.116)">
                    <path d="M0.497,-0.254c0,0.041 -0.006,0.077 -0.017,0.109c-0.011,0.032 -0.027,0.059 -0.048,0.082c-0.02,0.022 -0.045,0.039 -0.075,0.051c-0.03,0.012 -0.063,0.018 -0.1,0.018c-0.029,-0 -0.059,-0.003 -0.089,-0.008c-0.03,-0.006 -0.06,-0.015 -0.09,-0.027l0,-0.661l0.085,0l0,0.19l-0.004,0.091c0.025,-0.033 0.051,-0.056 0.079,-0.07c0.027,-0.013 0.057,-0.02 0.089,-0.02c0.028,-0 0.053,0.006 0.074,0.018c0.021,0.011 0.039,0.028 0.053,0.049c0.014,0.021 0.025,0.047 0.032,0.077c0.007,0.03 0.011,0.064 0.011,0.101Zm-0.087,0.004c0,-0.026 -0.002,-0.049 -0.005,-0.071c-0.004,-0.021 -0.01,-0.04 -0.018,-0.055c-0.008,-0.015 -0.019,-0.027 -0.032,-0.036c-0.012,-0.008 -0.027,-0.013 -0.045,-0.013c-0.011,0 -0.022,0.002 -0.033,0.005c-0.011,0.004 -0.022,0.009 -0.034,0.017c-0.012,0.008 -0.024,0.019 -0.038,0.032c-0.013,0.013 -0.027,0.03 -0.042,0.049l0,0.238c0.017,0.007 0.034,0.012 0.051,0.015c0.017,0.004 0.034,0.006 0.049,0.006c0.02,0 0.038,-0.003 0.056,-0.009c0.018,-0.006 0.033,-0.017 0.047,-0.031c0.013,-0.015 0.024,-0.034 0.032,-0.058c0.008,-0.024 0.012,-0.054 0.012,-0.089Z" style="fill-rule:nonzero;"/>
                </g>
                <g transform="matrix(17.5207,0,0,17.5207,152.396,170.116)">
                    <path d="M0.505,-0.249c-0,0.038 -0.005,0.073 -0.016,0.105c-0.011,0.031 -0.026,0.059 -0.047,0.081c-0.02,0.023 -0.044,0.04 -0.073,0.053c-0.029,0.013 -0.062,0.019 -0.099,0.019c-0.035,-0 -0.067,-0.006 -0.094,-0.017c-0.028,-0.01 -0.052,-0.027 -0.071,-0.048c-0.02,-0.021 -0.034,-0.047 -0.045,-0.078c-0.01,-0.032 -0.015,-0.067 -0.015,-0.108c-0,-0.038 0.005,-0.073 0.016,-0.104c0.011,-0.032 0.026,-0.059 0.046,-0.081c0.021,-0.023 0.045,-0.041 0.074,-0.053c0.029,-0.013 0.062,-0.019 0.099,-0.019c0.035,-0 0.066,0.005 0.094,0.016c0.028,0.011 0.052,0.027 0.071,0.048c0.019,0.021 0.034,0.047 0.045,0.079c0.01,0.031 0.015,0.067 0.015,0.107Zm-0.087,0.004c-0,-0.03 -0.003,-0.057 -0.01,-0.079c-0.007,-0.023 -0.016,-0.042 -0.029,-0.057c-0.012,-0.015 -0.027,-0.027 -0.045,-0.034c-0.018,-0.008 -0.037,-0.012 -0.059,-0.012c-0.025,0 -0.047,0.005 -0.065,0.015c-0.018,0.01 -0.033,0.023 -0.045,0.04c-0.011,0.017 -0.02,0.036 -0.025,0.058c-0.005,0.022 -0.008,0.045 -0.008,0.069c-0,0.03 0.003,0.057 0.01,0.079c0.007,0.023 0.016,0.042 0.028,0.057c0.013,0.015 0.028,0.027 0.045,0.035c0.018,0.007 0.038,0.011 0.06,0.011c0.025,0 0.047,-0.005 0.065,-0.015c0.018,-0.01 0.033,-0.023 0.045,-0.04c0.011,-0.016 0.02,-0.036 0.025,-0.058c0.005,-0.022 0.008,-0.045 0.008,-0.069Z" style="fill-rule:nonzero;"/>
                </g>
                <g transform="matrix(17.5207,0,0,17.5207,162.029,170.116)">
                    <path d="M0.505,-0.249c-0,0.038 -0.005,0.073 -0.016,0.105c-0.011,0.031 -0.026,0.059 -0.047,0.081c-0.02,0.023 -0.044,0.04 -0.073,0.053c-0.029,0.013 -0.062,0.019 -0.099,0.019c-0.035,-0 -0.067,-0.006 -0.094,-0.017c-0.028,-0.01 -0.052,-0.027 -0.071,-0.048c-0.02,-0.021 -0.034,-0.047 -0.045,-0.078c-0.01,-0.032 -0.015,-0.067 -0.015,-0.108c-0,-0.038 0.005,-0.073 0.016,-0.104c0.011,-0.032 0.026,-0.059 0.046,-0.081c0.021,-0.023 0.045,-0.041 0.074,-0.053c0.029,-0.013 0.062,-0.019 0.099,-0.019c0.035,-0 0.066,0.005 0.094,0.016c0.028,0.011 0.052,0.027 0.071,0.048c0.019,0.021 0.034,0.047 0.045,0.079c0.01,0.031 0.015,0.067 0.015,0.107Zm-0.087,0.004c-0,-0.03 -0.003,-0.057 -0.01,-0.079c-0.007,-0.023 -0.016,-0.042 -0.029,-0.057c-0.012,-0.015 -0.027,-0.027 -0.045,-0.034c-0.018,-0.008 -0.037,-0.012 -0.059,-0.012c-0.025,0 -0.047,0.005 -0.065,0.015c-0.018,0.01 -0.033,0.023 -0.045,0.04c-0.011,0.017 -0.02,0.036 -0.025,0.058c-0.005,0.022 -0.008,0.045 -0.008,0.069c-0,0.03 0.003,0.057 0.01,0.079c0.007,0.023 0.016,0.042 0.028,0.057c0.013,0.015 0.028,0.027 0.045,0.035c0.018,0.007 0.038,0.011 0.06,0.011c0.025,0 0.047,-0.005 0.065,-0.015c0.018,-0.01 0.033,-0.023 0.045,-0.04c0.011,-0.016 0.02,-0.036 0.025,-0.058c0.005,-0.022 0.008,-0.045 0.008,-0.069Z" style="fill-rule:nonzero;"/>
                </g>
                <g transform="matrix(17.5207,0,0,17.5207,171.662,170.116)">
                    <path d="M0.519,-0l-0.117,-0l-0.228,-0.263l-0,0.263l-0.085,-0l-0,-0.69l0.085,0l-0,0.424l0.22,-0.224l0.112,-0l-0.23,0.226l0.243,0.264Z" style="fill-rule:nonzero;"/>
                </g>
            </g>
        </g>
    </g>
</svg>
